<?xml version="1.0" standalone="no"?>
<!DOCTYPE svg PUBLIC "-//W3C//DTD SVG 20010904//EN"
 "http://www.w3.org/TR/2001/REC-SVG-20010904/DTD/svg10.dtd">
<svg version="1.0" xmlns="http://www.w3.org/2000/svg"
 width="1024.000000pt" height="1024.000000pt" viewBox="0 0 1024.000000 1024.000000"
 preserveAspectRatio="xMidYMid meet">

<g transform="translate(0.000000,1024.000000) scale(0.100000,-0.100000)"
fill="#000000" stroke="none">
<path d="M4920 10124 c-161 -9 -357 -27 -490 -45 -1260 -175 -2404 -822 -3207
-1816 -490 -606 -834 -1325 -997 -2087 -77 -354 -109 -672 -109 -1056 0 -295
10 -444 49 -720 212 -1492 1103 -2820 2409 -3592 984 -581 2121 -805 3265
-642 2186 311 3922 2048 4234 4235 38 267 49 430 49 719 0 289 -11 452 -49
719 -178 1246 -824 2380 -1811 3178 -765 619 -1685 993 -2673 1087 -155 15
-548 27 -670 20z m2630 -2308 c1400 -422 1330 -397 1330 -473 0 -53 -55 -101
-170 -149 -63 -25 -106 -51 -135 -79 -49 -48 -97 -143 -121 -236 -18 -74 -30
-343 -20 -442 l7 -65 173 -56 c263 -86 410 -168 391 -218 -9 -23 -58 -40 -242
-83 -90 -21 -163 -43 -163 -47 0 -5 11 -24 24 -41 105 -140 158 -397 136 -661
-27 -337 -109 -551 -268 -698 l-60 -55 89 -28 c98 -30 119 -48 119 -104 0 -52
-67 -111 -165 -148 -135 -49 -215 -147 -261 -318 -18 -69 -31 -346 -20 -448
l7 -64 67 -18 c100 -26 308 -103 383 -141 114 -57 143 -114 72 -142 -15 -6
-719 -178 -1563 -382 -844 -205 -1803 -437 -2130 -516 -327 -80 -606 -145
-620 -145 -36 -1 -2915 937 -2973 969 -112 60 -225 221 -280 398 -49 157 -61
251 -61 479 0 183 3 220 22 290 29 107 91 231 147 293 l45 50 -93 22 c-95 23
-127 41 -127 70 0 25 48 64 128 104 70 35 387 146 417 146 22 0 29 60 29 240
-1 199 -18 290 -75 407 -49 101 -94 142 -207 187 -128 52 -184 108 -169 168
12 48 32 58 202 110 94 28 172 52 173 54 2 1 -19 31 -47 66 -130 161 -197 386
-208 698 -4 137 -2 195 11 266 49 283 194 476 406 542 19 6 168 29 330 52 162
22 635 88 1050 146 415 57 834 116 930 129 1245 172 2058 286 2070 288 20 4
-29 19 1420 -417z"/>
<path d="M1745 7284 c-96 -50 -145 -163 -160 -369 -9 -117 10 -306 42 -414 48
-166 122 -256 237 -285 35 -8 464 -128 952 -265 1618 -454 1826 -512 1829
-509 6 7 32 934 27 939 -4 4 -637 212 -1408 463 -986 321 -1414 456 -1445 456
-24 0 -57 -7 -74 -16z"/>
<path d="M8220 7069 c-74 -15 -313 -65 -530 -109 -217 -45 -546 -112 -730
-150 -963 -198 -1127 -232 -1782 -366 l-337 -69 -5 -80 c-9 -133 -29 -846 -23
-851 3 -3 450 105 993 241 544 135 1325 329 1736 431 l748 186 -8 61 c-4 34
-7 150 -7 257 0 211 12 289 61 411 14 34 24 62 22 64 -2 1 -64 -11 -138 -26z"/>
<path d="M6825 5360 l-1400 -457 -3 -69 c-3 -97 23 -862 30 -870 6 -6 87 16
1458 401 1066 299 1291 362 1326 369 91 20 174 112 220 244 69 200 72 546 5
698 -40 90 -115 144 -196 143 -24 -1 -603 -185 -1440 -459z"/>
<path d="M1736 5601 c69 -160 87 -259 87 -476 0 -99 -5 -208 -10 -243 -10 -63
-10 -63 16 -68 14 -3 798 -198 1741 -433 943 -235 1715 -427 1716 -427 2 3
-29 932 -32 935 -2 2 -756 158 -1676 347 -920 189 -1713 352 -1761 363 -80 17
-88 17 -81 2z"/>
<path d="M1525 4328 c-78 -27 -127 -96 -162 -228 -25 -97 -23 -362 5 -493 45
-212 131 -329 265 -359 23 -5 362 -99 752 -208 391 -110 1005 -282 1365 -383
l655 -184 3 61 c5 101 30 881 28 883 -8 9 -2835 923 -2854 922 -15 0 -40 -5
-57 -11z"/>
<path d="M8025 4114 c-63 -14 -158 -34 -795 -164 -488 -100 -693 -142 -1068
-220 -217 -44 -348 -77 -500 -126 l-206 -67 -61 12 c-58 12 -72 10 -424 -63
-200 -42 -366 -78 -369 -81 -6 -6 -33 -814 -30 -881 l3 -51 1240 309 c682 170
1463 364 1735 431 491 122 495 123 492 147 -1 14 -5 115 -8 225 -8 254 8 358
81 528 9 21 -5 21 -90 1z"/>
</g>
</svg>
